inDegrees=yes
name=ik_S41_A01_T02
DataType=double
version=3
OpenSimVersion=4.3-2021-08-27-4bc7ad9
endheader
time	pelvis_tilt	pelvis_list	pelvis_rotation	pelvis_tx	pelvis_ty	pelvis_tz	hip_flexion_r	hip_adduction_r	hip_rotation_r	knee_angle_r	knee_angle_r_beta	ankle_angle_r	subtalar_angle_r	mtp_angle_r	hip_flexion_l	hip_adduction_l	hip_rotation_l	knee_angle_l	knee_angle_l_beta	ankle_angle_l	subtalar_angle_l	mtp_angle_l	lumbar_extension	lumbar_bending	lumbar_rotation	arm_flex_r	arm_add_r	arm_rot_r	elbow_flex_r	pro_sup_r	wrist_flex_r	wrist_dev_r	arm_flex_l	arm_add_l	arm_rot_l	elbow_flex_l	pro_sup_l	wrist_flex_l	wrist_dev_l
9.259999999999891	2.233972378688228	4.063581390263145	90.42657116060705	0	0.9399999999999999	0	-9.152137413891921	7.098553941338371	-1.391461146591677	6.027583390429458	0.1052011761015169	0	0	0	13.41371162855654	7.062039614957536	-8.09836817667623	-4.634818913418063	-0.08089285027285119	0	0	0	0	0	0	32.01913331845213	-32.01913331845206	4.403600599418976	76.94110760223606	85.59639964703193	0	0	32.01913331845213	-32.01913331845206	4.403600599418976	76.94110760223606	85.59639964692083	0	0
9.279999999999891	2.166791877615003	4.318019261155844	89.56538968339235	0	0.9399999999999999	0	-9.878374455080882	6.333390936924255	-2.655470980602561	8.366506229384234	0.1460230805913708	0	0	0	12.20082161184204	6.138907046157116	-8.73187088956376	-3.970668157287994	-0.06930123284877157	0	0	0	0	0	0	32.07641610104351	-32.07641610104344	4.408105980957099	77.00220901614512	85.59189426572037	0	0	32.07641610104351	-32.07641610104344	4.408105980957099	77.00220901614512	85.59189426561011	0	0
9.299999999999891	2.007202932503746	4.385490449257544	88.94195575003484	0	0.9399999999999999	0	-9.671602054943467	5.481158004144876	-2.73913621866148	12.5177416184474	0.218475806155831	0	0	0	11.41457144167167	5.639384498096538	-8.76877668474339	-3.859946880826349	-0.06736878202250497	0	0	0	0	0	0	32.08399428528273	-32.08399428528266	4.408797960364975	77.0116247297359	85.59120228634811	0	0	32.08399428528273	-32.08399428528266	4.408797960364975	77.0116247297359	85.591202286238	0	0
9.31999999999989	1.862396287506017	3.986982039609808	88.86125644773529	0	0.9399999999999999	0	-8.205235289909748	4.822366678662487	-2.605009697985502	15.02182114710443	0.2621802386626838	0	0	0	11.20446305749323	5.25910957976049	-6.480661241287305	-3.12063058092212	-0.05446527837551433	0	0	0	0	0	0	32.1564981629092	-32.15649816290913	4.4144641136637	77.08845527521997	85.58553613333395	0	0	32.1564981629092	-32.15649816290913	4.4144641136637	77.08845527521997	85.58553613322493	0	0
9.33999999999989	1.796828752659016	3.325807925971204	88.7963820728009	0	0.9399999999999999	0	-6.099733553582134	3.74922823813861	-3.611823930545602	19.783250229992	0.3452828532592858	0	0	0	11.02616759084676	5.039758389532176	-4.35843640212209	-2.723383450566296	-0.0475320080067061	0	0	0	0	0	0	32.2310256679445	-32.23102566794443	4.420262659848214	77.16707243583269	85.57973758744043	0	0	32.2310256679445	-32.23102566794443	4.420262659848214	77.16707243583269	85.57973758733252	0	0
9.359999999999889	1.802310086738787	3.70712078282321	88.26312766720928	0	0.9399999999999999	0	-4.575598120261038	2.265443719498499	-4.968294885504665	25.58293986627178	0.4465065330061604	0	0	0	9.308110739820256	4.514184239232566	-3.784177118685021	-3.400739401809519	-0.05935409956387851	0	0	0	0	0	0	32.3003074255016	-32.30030742550153	4.425681695618213	77.24055174307686	85.57431855194268	0	0	32.3003074255016	-32.30030742550153	4.425681695618213	77.24055174307686	85.57431855183572	0	0
9.379999999999889	1.887374768738136	3.863754101180208	87.18304568006265	0	0.9399999999999999	0	-4.762934347245766	2.003952619642699	-3.831200783101671	29.34423210140436	0.5121534666389207	0	0	0	7.97005522530533	3.608652714775202	-5.385250429867295	-3.537304956757066	-0.06173761814252644	0	0	0	0	0	0	32.30622431367084	-32.30622431367077	4.426214421836993	77.24779650551616	85.57378582575129	0	0	32.30622431367084	-32.30622431367077	4.426214421836993	77.24779650551616	85.57378582564442	0	0
9.399999999999888	1.896558858154594	3.87410280148164	87.17583570691437	0	0.9399999999999999	0	-2.069226325580397	0.5800808715676904	-4.374722260498038	36.08351849654773	0.629776203469032	0	0	0	6.933247121953555	3.435024479015826	-5.388797705081291	-3.256230108946546	-0.0568319366036909	0	0	0	0	0	0	32.53396393023735	-32.53396393023728	4.444181291586823	77.49143109691015	85.55581895690437	0	0	32.53396393023735	-32.53396393023728	4.444181291586823	77.49143109691015	85.55581895680089	0	0
9.419999999999888	1.55794183426965	3.76308617602023	85.49466461475383	0	0.9399999999999999	0	5.308332850751421	-0.9172589021016179	1.321353271696117	47.44731525616341	0.8281118724517883	0	0	0	6.201363417152419	3.580552111389857	-6.03213977913747	-3.197305066427698	-0.05580350059985933	0	0	0	0	0	0	32.74900009382887	-32.7490000938288	4.460486376130139	77.71235188627813	85.53951387317525	0	0	32.74900009382887	-32.7490000938288	4.460486376130139	77.71235188627813	85.53951387307482	0	0
9.439999999999888	1.39256576794531	3.313895943673597	84.89230800073462	0	0.9399999999999999	0	8.831625919988696	-1.887467034771052	2.346159370534431	53.94121187013919	0.9414517496497768	0	0	0	5.648611919558213	3.609591632129901	-5.537559978119526	-3.467473616191167	-0.06051883132857001	0	0	0	0	0	0	32.83674575162788	-32.83674575162781	4.467078483948212	77.80165264250105	85.53292176568581	0	0	32.83674575162788	-32.83674575162781	4.467078483948212	77.80165264250105	85.53292176558662	0	0
9.459999999999887	1.326961631059321	3.205230028307589	84.49622882949106	0	0.9399999999999999	0	11.38251221497386	-2.491844754137224	0.9803304118976277	58.43978473133882	1.019966657718572	0	0	0	4.794019343164245	3.627419744278556	-5.17301022433488	-3.644541819412	-0.06360925447536399	0	0	0	0	0	0	32.87246194562648	-32.87246194562641	4.469802551305049	77.83856574529841	85.53019769846514	0	0	32.87246194562648	-32.87246194562641	4.469802551305049	77.83856574529841	85.53019769836648	0	0
9.479999999999887	1.327789206396712	3.183283555234728	84.32709238250293	0	0.9399999999999999	0	13.65723562951645	-3.235993515028651	-0.9891007970350881	61.2853108954398	1.069630458233779	0	0	0	3.922594625484711	3.647351028533731	-4.891336016877072	-3.587823918977857	-0.06261934036796987	0	0	0	0	0	0	32.90315858657917	-32.9031585865791	4.472125484353157	77.87003829296599	85.52787476553306	0	0	32.90315858657917	-32.9031585865791	4.472125484353157	77.87003829296599	85.52787476543482	0	0
